<svg
  width="39"
  height="40"
  viewBox="0 0 39 40"
  fill="none"
  xmlns="http://www.w3.org/2000/svg"
>
<path d="M29.2192 28.012H8.78687V35.6724H29.2192V28.012Z" fill="#A7A9AC" />
<path d="M27.9866 21.6931H10.3313V27.2473H27.9866V21.6931Z" fill="#A7A9AC" />
<path
    d="M19.4002 28.2942L8.21139 28.2539L8.17114 34.5594L9.43223 34.5728L9.45906 29.1528C9.45906 29.1528 9.41882 28.3881 10.1164 28.4015C10.8275 28.4015 10.8141 29.1662 10.8141 29.1662L10.7872 34.5862L12.4776 34.5996L12.5045 29.1796C12.5045 29.1796 12.4642 28.4149 13.1618 28.4283C13.8595 28.4283 13.8595 29.193 13.8595 29.193L13.8326 34.6264H13.1753L19.36 34.6801V34.6533H19.3332H18.5819L18.6087 29.2199C18.6087 29.2199 18.555 28.4551 19.2661 28.4686C19.2929 28.4686 19.3331 28.4686 19.36 28.4686H19.3734C19.9637 28.5491 19.9637 29.2199 19.9637 29.2199L19.9369 34.6399H21.6407L21.6675 29.2333C21.6675 29.2333 21.6139 28.4686 22.3249 28.482C23.0225 28.482 23.0225 29.2467 23.0225 29.2467L22.9957 34.6399H24.6995L24.7263 29.2601C24.7263 29.2601 24.6861 28.4954 25.3837 28.4954C26.0813 28.4954 26.0813 29.2601 26.0813 29.2601L26.0545 34.6399H27.7449L27.7717 29.2735C27.7717 29.2735 27.7315 28.5088 28.4291 28.5222C29.1402 28.5222 29.1267 29.2869 29.1267 29.2869L29.0999 34.6399H30.3476L30.3878 28.3747C30.4147 28.3612 30.4281 28.3612 30.4549 28.3478L19.4002 28.2942ZM16.8915 34.6264L15.5365 34.613L15.5633 29.1796C15.5633 29.1796 15.523 28.4149 16.2207 28.4283C16.9183 28.4283 16.9183 29.193 16.9183 29.193L16.8915 34.6264Z"
    fill="#E6E7E8"
  />
<path
    d="M19.762 5.54076L19.7888 0H19.5473H19.5205H19.1583L19.1314 5.54076C18.8094 5.60784 18.5143 5.79566 18.3399 6.07739H18.1923C18.1655 6.07739 18.1386 6.07739 18.1118 6.07739H20.5535C20.3657 5.79566 20.0839 5.60784 19.762 5.54076Z"
    fill="#A7A9AC"
  />
<path
    d="M20.7011 6.09056H20.5401C20.5401 6.09056 20.5401 6.07715 20.5267 6.07715H18.085C17.8033 6.1174 17.5886 6.38571 17.6289 6.66745C17.6557 6.84185 17.763 6.98943 17.9106 7.06992V7.09675H20.9158C21.0902 7.00284 21.2109 6.82843 21.2109 6.6272C21.2243 6.33205 20.9963 6.09056 20.7011 6.09056Z"
    fill="#E6E7E8"
  />
<path
    d="M17.9382 7.09741L17.9248 10.4514L19.4945 10.4648L20.93 10.4782L20.9568 7.09741H17.9382Z"
    fill="#F4F4F4"
  />
<path
    d="M25.8124 15.6699C24.6721 14.0332 23.1561 13.0136 21.8816 12.3965C21.8816 12.383 21.895 12.383 21.895 12.3696H19.4667H16.9177C16.9177 12.3696 16.9177 12.383 16.9311 12.383C15.6432 12.9868 14.1138 13.9795 12.9735 15.6029C11.8734 17.1591 11.5111 19.4666 11.3904 20.6204H27.315C27.1943 19.4264 26.8455 17.1993 25.8124 15.6699Z"
    fill="#F4F4F4"
  />
<path
    d="M28.3749 20.7545H27.3284C27.3284 20.7143 27.315 20.674 27.315 20.6204H11.3904C11.3904 20.6338 11.3904 20.6472 11.3904 20.6606H10.3439C9.87439 20.6606 9.48533 21.0497 9.49875 21.5192C9.49875 21.7875 9.6329 22.0559 9.86097 22.2034L9.83414 26.2684L8.50597 26.255C8.45231 26.255 8.39865 26.255 8.3584 26.2684L19.4265 26.3087L23.7867 26.3221L23.8135 22.3913C23.8135 22.3913 23.7732 21.8412 24.3367 21.8412C24.6453 21.8278 24.9002 22.0559 24.9136 22.351C24.9136 22.3644 24.9136 22.3778 24.9136 22.3913L24.8868 26.3221H26.282L26.3088 22.3913C26.282 22.1229 26.4832 21.868 26.765 21.8412C26.7918 21.8412 26.8186 21.8412 26.8589 21.8412C27.154 21.8278 27.4089 22.0559 27.4358 22.3644C27.4358 22.3778 27.4358 22.3913 27.4358 22.3913L27.4089 26.3087H28.8579L28.8847 22.2705C29.1128 22.1095 29.2603 21.8546 29.2603 21.5729C29.2201 21.1436 28.8444 20.7545 28.3749 20.7545ZM12.3697 26.2684L11.2696 26.255L11.2965 22.3242C11.2696 22.0559 11.4709 21.801 11.7526 21.7741C11.7794 21.7741 11.8063 21.7741 11.8465 21.7741C12.1417 21.7607 12.3966 22.0022 12.41 22.2973C12.41 22.3108 12.41 22.3242 12.41 22.3242L12.3697 26.2684ZM14.8785 26.2819H13.7784L13.8052 22.351C13.7784 22.0827 13.9796 21.8278 14.248 21.801C14.2748 21.801 14.3016 21.801 14.3419 21.801C14.637 21.7875 14.8919 22.029 14.9053 22.3242C14.9053 22.3376 14.9053 22.351 14.9053 22.351L14.8785 26.2819ZM17.3739 26.2953L16.2738 26.2819L16.3006 22.351C16.2738 22.0827 16.475 21.8278 16.7433 21.801C16.7701 21.801 16.797 21.801 16.8372 21.801C17.1324 21.7875 17.3873 22.0156 17.4007 22.3242C17.4007 22.3376 17.4007 22.351 17.4007 22.351L17.3739 26.2953ZM19.8826 26.3087H19.4131H19.3997H18.7691L18.796 22.3778C18.7691 22.0961 18.9704 21.8546 19.2521 21.8278C19.2789 21.8278 19.3058 21.8278 19.3326 21.8278C19.3594 21.8278 19.3997 21.8278 19.4265 21.8412C19.6948 21.8815 19.896 22.1095 19.896 22.3778L19.8826 26.3087ZM22.378 26.3221H21.2645L21.2913 22.3913C21.2645 22.1095 21.4657 21.868 21.7474 21.8412C21.7743 21.8412 21.8011 21.8412 21.8279 21.8412C22.1231 21.8278 22.3914 22.0559 22.4048 22.3644C22.4048 22.3778 22.4048 22.3913 22.4048 22.3913L22.378 26.3221Z"
    fill="#E6E7E8"
  />
<path
    d="M38.4353 39.2146L38.4488 36.4912L32.8141 36.4509H32.3848L32.3982 34.7605L30.359 34.7471V34.6129H29.1113V34.68L27.7563 34.6666V34.5995H26.0659V34.6532L24.7109 34.6398V34.5995H23.0071V34.6263L21.6655 34.6129V34.5861H19.9617V34.5995H19.3848V34.5861L13.2001 34.5324H12.5159L10.8255 34.519V34.5324L9.47047 34.519V34.5056L8.20938 34.4922V34.5593L6.18358 34.5459L6.17016 36.2363L0.10619 36.196L0.0927734 39.0133L19.3714 39.0938V39.1073L38.4353 39.2146Z"
    fill="#F4F4F4"
  />
<path
    d="M30.1465 26.3888L28.8183 26.3753V26.3485H27.3694V26.3619H26.2559V26.3485H24.8606L23.7471 26.3351L19.3467 26.2814L8.30541 26.2144C7.75536 26.3083 7.37971 26.8315 7.47363 27.3815C7.5407 27.7706 7.82244 28.0792 8.19808 28.1865V28.1999L19.4003 28.2804L30.4684 28.3206C30.9917 28.1462 31.2734 27.5828 31.099 27.0596C30.9648 26.6571 30.5892 26.3888 30.1465 26.3888Z"
    fill="white"
  />
<path
    d="M31.3269 27.2613C31.3269 27.8516 30.8439 28.3345 30.2537 28.3345H8.38577C7.79547 28.3345 7.3125 27.8516 7.3125 27.2613C7.3125 26.671 7.79547 26.188 8.38577 26.188H30.2537C30.8439 26.188 31.3269 26.6575 31.3269 27.2613Z"
    fill="#F4F4F4"
  />
<path
    d="M21.3984 6.60059C21.3984 6.90915 21.1569 7.15064 20.8484 7.15064H18.0579C17.7493 7.15064 17.5078 6.90915 17.5078 6.60059C17.5078 6.29202 17.7493 6.05054 18.0579 6.05054H20.8484C21.1569 6.05054 21.3984 6.29202 21.3984 6.60059Z"
    fill="#E6E7E8"
  />
<path d="M38.4499 36.1558H0V36.9205H38.4499V36.1558Z" fill="#A7A9AC" />
</svg>
